HIERARCHY
ROOT Hips
{
	OFFSET 0.000000 88.474243 0.000000
	CHANNELS 6 Xposition Yposition Zposition Zrotation Yrotation Xrotation 
	JOINT Hips_Spine
	{
		OFFSET 0.000000 0.000000 0.000000
		CHANNELS 3 Zrotation Yrotation Xrotation
		JOINT Spine
		{
			OFFSET 0.005100 8.711998 -0.691000
			CHANNELS 3 Zrotation Yrotation Xrotation
			JOINT Spine1
			{
				OFFSET -0.009200 8.660301 -1.275000
				CHANNELS 3 Zrotation Yrotation Xrotation
				JOINT Spine2
				{
					OFFSET 0.006300 9.852501 -1.857000
					CHANNELS 3 Zrotation Yrotation Xrotation
					JOINT Spine2_Neck
					{
						OFFSET 0.000000 0.000000 0.000000
						CHANNELS 3 Zrotation Yrotation Xrotation
						JOINT Neck
						{
							OFFSET 0.016300 11.420799 -0.263300
							CHANNELS 3 Zrotation Yrotation Xrotation
							End Site #name: Head
							{
								OFFSET -0.019200 9.262405 2.362500
							}
						}
					}
					JOINT Spine2_LeftShoulder
					{
						OFFSET 0.000000 0.000000 0.000000
						CHANNELS 3 Zrotation Yrotation Xrotation
						JOINT LeftShoulder
						{
							OFFSET 5.616900 6.732201 -0.345700
							CHANNELS 3 Zrotation Yrotation Xrotation
							JOINT LeftArm
							{
								OFFSET 10.664888 -0.183372 -2.440700
								CHANNELS 3 Zrotation Yrotation Xrotation
								JOINT LeftForeArm
								{
									OFFSET 27.459126 0.000000 0.000000
									CHANNELS 3 Zrotation Yrotation Xrotation
									End Site #name: LeftHand
									{
										OFFSET 21.306858 0.000000 0.000000
									}
								}
							}
						}
					}
					JOINT Spine2_RightShoulder
					{
						OFFSET 0.000000 0.000000 0.000000
						CHANNELS 3 Zrotation Yrotation Xrotation
						JOINT RightShoulder
						{
							OFFSET -5.580300 6.737503 -0.344400
							CHANNELS 3 Zrotation Yrotation Xrotation
							JOINT RightArm
							{
								OFFSET -10.679335 -0.188484 -2.383900
								CHANNELS 3 Zrotation Yrotation Xrotation
								JOINT RightForeArm
								{
									OFFSET -27.503529 0.000000 0.000000
									CHANNELS 3 Zrotation Yrotation Xrotation
									End Site #name: RightHand
									{
										OFFSET -21.306808 0.000000 0.000000
									}
								}
							}
						}
					}
				}
			}
		}
	}
	JOINT Hips_LeftUpLeg
	{
		OFFSET 0.000000 0.000000 0.000000
		CHANNELS 3 Zrotation Yrotation Xrotation
		JOINT LeftUpLeg
		{
			OFFSET 6.857700 -6.739601 0.312100
			CHANNELS 3 Zrotation Yrotation Xrotation
			JOINT LeftLeg
			{
				OFFSET -0.367590 -34.731552 -4.572400
				CHANNELS 3 Zrotation Yrotation Xrotation
				End Site #name: LeftFoot
				{
					OFFSET 0.367590 -34.656704 -6.067400
				}
			}
		}
	}
	JOINT Hips_RightUpLeg
	{
		OFFSET 0.000000 0.000000 0.000000
		CHANNELS 3 Zrotation Yrotation Xrotation
		JOINT RightUpLeg
		{
			OFFSET -6.876100 -6.733299 0.301000
			CHANNELS 3 Zrotation Yrotation Xrotation
			JOINT RightLeg
			{
				OFFSET 0.347353 -34.795158 -4.515900
				CHANNELS 3 Zrotation Yrotation Xrotation
				End Site #name: RightFoot
				{
					OFFSET -0.347353 -34.589367 -6.070300
				}
			}
		}
	}
}
MOTION
Frames: 9
Frame Time: 0.041667
0.167886 0.044331 -0.000709 0.173082 26.275475 -6.739202 0.000000 0.000000 0.000000 -1.300564 -1.577629 0.475143 -0.249489 -1.345936 -0.413226 0.000000 0.000000 0.000000 -0.218621 -0.953597 -1.270754 4.611630 0.616022 -6.433233 0.140951 -1.728890 -2.433750 -17.538917 -6.382204 1.965586 -43.949397 2.063356 14.718890 0.789421 -27.200534 6.352222 -0.436262 -0.867724 0.053617 14.065415 11.367921 4.028586 57.163784 -5.388582 -4.153259 -0.424898 47.684324 0.723131 0.000000 0.000000 0.000000 -9.172163 17.158188 -2.990555 -1.522528 -0.533471 20.785204 0.000000 0.000000 0.000000 -3.380665 13.274919 -5.836307 6.537473 4.030698 -4.814449 
0.738061 -0.042850 0.199901 1.820208 29.731112 -7.185237 -0.000000 0.000000 0.000000 -3.869521 -2.351353 0.344162 0.077616 -1.298391 -0.614161 0.000000 0.000000 0.000000 -0.231760 -0.875597 -1.930384 5.606717 -0.680247 -6.034093 -0.540748 -1.363515 -2.940842 -23.297853 -3.254478 0.406194 -41.016285 2.483896 9.975719 -0.361739 -19.024807 4.898207 -0.406771 -1.162598 -0.507352 14.841952 8.978708 1.856513 58.879044 -1.020005 -3.540068 -0.439328 47.009292 -0.820220 0.000000 0.000000 -0.000000 -11.451018 15.184503 -0.061449 -1.483825 2.566934 18.816068 0.000000 0.000000 0.000000 -7.046485 13.728687 -5.564321 6.683235 4.877551 -2.491557 
1.095829 -0.087946 0.306790 3.314876 29.097405 -7.142204 -0.000000 0.000000 -0.000000 -4.958250 -3.408474 0.733483 0.068671 -1.022228 -0.665604 0.000000 0.000000 0.000000 0.381465 -1.201824 -1.909853 5.330062 -1.153337 -7.079734 -0.670946 -1.305704 -2.744955 -27.424234 -2.418123 1.639321 -41.119373 8.331521 5.437438 -0.525378 -21.103018 5.201100 -0.166931 -1.087916 -0.474810 13.824102 8.809503 2.100735 57.926206 1.912649 -1.768853 -0.186521 42.598314 -0.754305 0.000000 0.000000 -0.000000 -13.272629 14.768307 1.752771 -2.128264 3.168754 16.809590 0.000000 0.000000 0.000000 -9.057201 14.054914 -7.658226 6.303451 3.198899 2.604557 
1.435917 -0.146196 0.343064 4.138203 28.133016 -6.699952 -0.000000 0.000000 -0.000000 -5.703031 -2.930862 1.491997 0.097603 -0.958050 -0.708987 0.000000 0.000000 0.000000 0.645059 -1.274098 -1.726563 5.033230 -2.077101 -6.130002 -0.486328 -1.330526 -2.533726 -29.156688 -2.244238 2.506109 -41.012174 7.644212 5.307941 -0.026584 -20.811307 7.449401 0.008710 -1.040833 -0.312054 13.001705 9.002378 2.159537 57.869458 5.026817 -0.461192 -0.003715 45.377258 -0.706551 0.000000 0.000000 -0.000000 -14.447053 14.898117 1.974143 -2.206419 3.975869 15.910644 0.000000 0.000000 0.000000 -10.514591 13.228549 -10.251620 5.996564 3.145100 8.443795 
1.813870 -0.174153 0.352801 4.595403 27.788112 -6.069730 -0.000000 0.000000 -0.000000 -6.343082 -2.278833 1.395610 0.095559 -0.922153 -0.583690 0.000000 0.000000 0.000000 0.566582 -1.309765 -1.678894 4.956494 -2.605600 -5.505261 -0.407913 -1.361880 -2.276251 -31.090844 -1.535899 3.470884 -38.711532 6.835487 6.780248 0.629454 -17.222273 9.679418 0.072070 -0.998419 -0.105329 11.769620 8.871175 2.019213 58.709089 6.332423 -1.084228 0.062231 47.533045 -0.781705 0.000000 0.000000 -0.000000 -15.469070 15.129539 1.918136 -2.117024 4.279480 15.190493 0.000000 0.000000 0.000000 -11.857270 11.807046 -12.114714 5.962107 4.142645 12.829875 
2.212188 -0.184377 0.339762 4.823895 27.944140 -5.620945 -0.000000 0.000000 -0.000000 -6.956781 -2.057441 1.013562 0.004750 -0.889774 -0.456116 0.000000 0.000000 0.000000 0.373428 -1.333104 -1.619120 4.491483 -2.919480 -4.396515 -0.456948 -1.414319 -2.138796 -32.787209 -0.951923 4.062403 -36.477803 6.059990 7.902018 1.011021 -12.569886 11.332936 0.020263 -1.034815 -0.056847 10.279437 8.538243 1.879160 60.068927 6.073555 -2.393432 0.219623 47.423612 -0.797154 0.000000 0.000000 -0.000000 -16.168566 15.391516 1.776699 -1.965539 4.381893 14.753118 0.000000 0.000000 0.000000 -12.853888 10.526257 -12.806929 6.298148 5.884816 15.144560 
2.611085 -0.179368 0.317626 4.802886 28.449535 -5.386192 -0.000000 0.000000 -0.000000 -7.231914 -1.907466 0.576345 -0.149714 -0.842840 -0.406354 0.000000 0.000000 0.000000 0.139512 -1.326289 -1.578422 3.768490 -3.159710 -3.039838 -0.592345 -1.410048 -2.098075 -34.220397 -0.295769 4.354907 -34.551703 5.564231 8.445172 1.388080 -8.080779 12.105180 -0.139270 -1.031990 -0.092682 9.298195 8.192855 1.719809 61.497597 4.485648 -3.778738 0.393647 45.981071 -0.804306 0.000000 0.000000 -0.000000 -16.596925 15.436665 1.498307 -1.809971 4.447484 14.752619 0.000000 0.000000 0.000000 -13.526830 9.245891 -12.769055 6.441557 7.345203 16.476071 
2.993330 -0.165103 0.301901 4.614777 29.209891 -5.289969 -0.000000 0.000000 -0.000000 -7.448995 -1.697219 0.148278 -0.335464 -0.753356 -0.432976 0.000000 0.000000 0.000000 -0.084204 -1.305636 -1.618663 3.121844 -3.308633 -2.044877 -0.785430 -1.368676 -2.120215 -35.368277 0.346576 4.350098 -33.108129 5.225907 8.507859 1.624901 -4.922582 11.981515 -0.322107 -0.979898 -0.107670 8.799182 7.949516 1.613400 62.892101 2.767110 -4.878218 0.503828 43.785570 -0.768393 0.000000 0.000000 -0.000000 -16.804739 15.262774 1.064707 -1.735442 4.482731 15.135197 0.000000 0.000000 0.000000 -13.907581 7.862345 -12.352074 6.346487 8.490533 17.044715 
3.336020 -0.144396 0.297732 4.318094 30.056285 -5.226441 -0.000000 0.000000 -0.000000 -7.746140 -1.404583 -0.135966 -0.513364 -0.630582 -0.544729 0.000000 0.000000 0.000000 -0.319998 -1.248244 -1.711895 2.665282 -3.331383 -1.441240 -0.977849 -1.298152 -2.249829 -36.137312 0.856827 4.268961 -32.285262 4.979305 8.335674 1.632818 -3.597961 11.341514 -0.551572 -0.869749 -0.149657 8.554550 7.739119 1.545888 63.864124 1.364391 -5.338093 0.613446 41.599902 -0.737883 0.000000 0.000000 -0.000000 -16.861020 14.999856 0.582813 -1.602605 4.545151 15.640179 0.000000 0.000000 0.000000 -14.023679 6.453822 -11.715639 6.135441 9.512816 16.925541 
